<svg width="42" height="42" viewBox="0 0 42 42" fill="none" xmlns="http://www.w3.org/2000/svg">
<path d="M32.25 20.625C32.25 14.2031 27.0469 9 20.625 9C14.2031 9 9 14.2031 9 20.625C9 26.4272 13.2511 31.2366 18.8086 32.1094V23.9855H15.8555V20.625H18.8086V18.0638C18.8086 15.1505 20.543 13.5412 23.1994 13.5412C24.4716 13.5412 25.8019 13.7681 25.8019 13.7681V16.6275H24.3356C22.8919 16.6275 22.4414 17.5238 22.4414 18.443V20.625H25.6655L25.1498 23.9855H22.4414V32.1094C27.9989 31.2366 32.25 26.4272 32.25 20.625Z" fill="white"/>
<circle cx="21" cy="21" r="20.5" stroke="white"/>
</svg>
