<svg width="281" height="116" viewBox="0 0 281 116" fill="none" xmlns="http://www.w3.org/2000/svg">
<mask id="mask0_23_26" style="mask-type:luminance" maskUnits="userSpaceOnUse" x="-83" y="58" width="183" height="268">
<path d="M66.3208 58.5C50.9922 58.5 38.5705 70.7033 38.5705 85.747V111.703C38.5705 115.142 35.7322 117.937 32.2077 117.937H5.79508C-9.53352 117.937 -21.9552 130.148 -21.9552 145.192V171.148C-21.9552 174.587 -24.7937 177.393 -28.3106 177.393H-54.7348C-70.0596 177.393 -82.473 189.593 -82.473 204.637V236.831C-82.473 286.071 -41.8293 326 8.30206 326C58.4486 326 99.0962 286.071 99.0962 236.831V177.393H66.3208C50.9922 177.393 38.5705 189.593 38.5705 204.637V236.831C38.5705 253.248 25.0214 266.548 8.30206 266.548C-8.40585 266.548 -21.9552 253.248 -21.9552 236.831V183.632C-21.9552 180.181 -19.109 177.393 -15.6036 177.393H10.8281C26.1453 177.393 38.5705 165.186 38.5705 150.135V124.179C38.5705 120.736 41.4246 117.937 44.9301 117.937H71.3464C86.6636 117.937 99.0962 105.745 99.0962 90.694V58.5075L99.0809 58.5H66.3208Z" fill="white"/>
</mask>
<g mask="url(#mask0_23_26)">
<rect x="-85.5637" y="54.8662" width="186.702" height="273.181" fill="#1AB1C7"/>
</g>
<mask id="mask1_23_26" style="mask-type:luminance" maskUnits="userSpaceOnUse" x="-83" y="-209" width="183" height="268">
<path d="M66.3208 58.5C50.9922 58.5 38.5705 46.2967 38.5705 31.253V5.2972C38.5705 1.85812 35.7322 -0.937363 32.2077 -0.937363H5.79508C-9.53352 -0.937363 -21.9552 -13.1482 -21.9552 -28.1919V-54.1477C-21.9552 -57.5868 -24.7937 -60.3935 -28.3106 -60.3935H-54.7348C-70.0596 -60.3935 -82.473 -72.5929 -82.473 -87.6366V-119.831C-82.473 -169.071 -41.8293 -209 8.30206 -209C58.4486 -209 99.0962 -169.071 99.0962 -119.831V-60.3935H66.3208C50.9922 -60.3935 38.5705 -72.5929 38.5705 -87.6366V-119.831C38.5705 -136.248 25.0214 -149.548 8.30206 -149.548C-8.40585 -149.548 -21.9552 -136.248 -21.9552 -119.831V-66.6317C-21.9552 -63.1814 -19.109 -60.3935 -15.6036 -60.3935H10.8281C26.1453 -60.3935 38.5705 -48.1864 38.5705 -33.1353V-7.17924C38.5705 -3.73642 41.4246 -0.937363 44.9301 -0.937363H71.3464C86.6636 -0.937363 99.0962 11.2548 99.0962 26.306V58.4925L99.0809 58.5H66.3208Z" fill="white"/>
</mask>
<g mask="url(#mask1_23_26)">
<rect width="186.702" height="273.181" transform="matrix(1 0 0 -1 -85.5637 62.1338)" fill="#15355B"/>
</g>
<mask id="mask2_23_26" style="mask-type:luminance" maskUnits="userSpaceOnUse" x="99" y="-209" width="182" height="268">
<path d="M131.878 58.5C147.206 58.5 159.628 46.2967 159.628 31.253V5.2972C159.628 1.85812 162.466 -0.937363 165.991 -0.937363H192.404C207.732 -0.937363 220.154 -13.1482 220.154 -28.1919V-54.1477C220.154 -57.5868 222.992 -60.3935 226.509 -60.3935H252.933C268.258 -60.3935 280.672 -72.5929 280.672 -87.6366V-119.831C280.672 -169.071 240.028 -209 189.897 -209C139.75 -209 99.1024 -169.071 99.1024 -119.831V-60.3935H131.878C147.206 -60.3935 159.628 -72.5929 159.628 -87.6366V-119.831C159.628 -136.248 173.177 -149.548 189.897 -149.548C206.604 -149.548 220.154 -136.248 220.154 -119.831V-66.6317C220.154 -63.1814 217.308 -60.3935 213.802 -60.3935H187.37C172.053 -60.3935 159.628 -48.1864 159.628 -33.1353V-7.17924C159.628 -3.73642 156.774 -0.937363 153.269 -0.937363H126.852C111.535 -0.937363 99.1024 11.2548 99.1024 26.306V58.4925L99.1177 58.5H131.878Z" fill="white"/>
</mask>
<g mask="url(#mask2_23_26)">
<rect x="283.762" y="62.1338" width="186.702" height="273.181" transform="rotate(180 283.762 62.1338)" fill="#1AB1C7"/>
</g>
<mask id="mask3_23_26" style="mask-type:luminance" maskUnits="userSpaceOnUse" x="99" y="58" width="182" height="268">
<path d="M131.878 58.5C147.206 58.5 159.628 70.7033 159.628 85.747V111.703C159.628 115.142 162.466 117.937 165.991 117.937H192.404C207.732 117.937 220.154 130.148 220.154 145.192V171.148C220.154 174.587 222.992 177.393 226.509 177.393H252.933C268.258 177.393 280.672 189.593 280.672 204.637V236.831C280.672 286.071 240.028 326 189.897 326C139.75 326 99.1024 286.071 99.1024 236.831V177.393H131.878C147.206 177.393 159.628 189.593 159.628 204.637V236.831C159.628 253.248 173.177 266.548 189.897 266.548C206.604 266.548 220.154 253.248 220.154 236.831V183.632C220.154 180.181 217.308 177.393 213.802 177.393H187.37C172.053 177.393 159.628 165.186 159.628 150.135V124.179C159.628 120.736 156.774 117.937 153.269 117.937H126.852C111.535 117.937 99.1024 105.745 99.1024 90.694V58.5075L99.1177 58.5H131.878Z" fill="white"/>
</mask>
<g mask="url(#mask3_23_26)">
<rect width="186.702" height="273.181" transform="matrix(-1 0 0 1 283.762 54.8662)" fill="#15355B"/>
</g>
</svg>
