<svg width="42" height="42" viewBox="0 0 42 42" fill="none" xmlns="http://www.w3.org/2000/svg">
<path d="M20.5082 15.1176C17.527 15.1176 15.1223 17.5223 15.1223 20.5035C15.1223 23.4848 17.527 25.8895 20.5082 25.8895C23.4895 25.8895 25.8941 23.4848 25.8941 20.5035C25.8941 17.5223 23.4895 15.1176 20.5082 15.1176ZM20.5082 24.0051C18.5816 24.0051 17.0066 22.4348 17.0066 20.5035C17.0066 18.5723 18.577 17.002 20.5082 17.002C22.4395 17.002 24.0098 18.5723 24.0098 20.5035C24.0098 22.4348 22.4348 24.0051 20.5082 24.0051ZM27.3707 14.8973C27.3707 15.5957 26.8082 16.1535 26.1145 16.1535C25.416 16.1535 24.8582 15.591 24.8582 14.8973C24.8582 14.2035 25.4207 13.641 26.1145 13.641C26.8082 13.641 27.3707 14.2035 27.3707 14.8973ZM30.9379 16.1723C30.8582 14.4895 30.4738 12.9988 29.241 11.7707C28.0129 10.5426 26.5223 10.1582 24.8395 10.0738C23.1051 9.97539 17.9066 9.97539 16.1723 10.0738C14.4941 10.1535 13.0035 10.5379 11.7707 11.766C10.5379 12.9941 10.1582 14.4848 10.0738 16.1676C9.97539 17.902 9.97539 23.1004 10.0738 24.8348C10.1535 26.5176 10.5379 28.0082 11.7707 29.2363C13.0035 30.4645 14.4895 30.8488 16.1723 30.9332C17.9066 31.0316 23.1051 31.0316 24.8395 30.9332C26.5223 30.8535 28.0129 30.4691 29.241 29.2363C30.4691 28.0082 30.8535 26.5176 30.9379 24.8348C31.0363 23.1004 31.0363 17.9066 30.9379 16.1723ZM28.6973 26.6957C28.3316 27.6145 27.6238 28.3223 26.7004 28.6926C25.3176 29.241 22.0363 29.1145 20.5082 29.1145C18.9801 29.1145 15.6941 29.2363 14.316 28.6926C13.3973 28.327 12.6895 27.6191 12.3191 26.6957C11.7707 25.3129 11.8973 22.0316 11.8973 20.5035C11.8973 18.9754 11.7754 15.6895 12.3191 14.3113C12.6848 13.3926 13.3926 12.6848 14.316 12.3145C15.6988 11.766 18.9801 11.8926 20.5082 11.8926C22.0363 11.8926 25.3223 11.7707 26.7004 12.3145C27.6191 12.6801 28.327 13.3879 28.6973 14.3113C29.2457 15.6941 29.1191 18.9754 29.1191 20.5035C29.1191 22.0316 29.2457 25.3176 28.6973 26.6957Z" fill="white"/>
<circle cx="21" cy="21" r="20.5" stroke="white"/>
</svg>
