<svg width="42" height="42" viewBox="0 0 42 42" fill="none" xmlns="http://www.w3.org/2000/svg">
<path d="M29.5 10H11.4953C10.6703 10 10 10.6797 10 11.5141V29.4859C10 30.3203 10.6703 31 11.4953 31H29.5C30.325 31 31 30.3203 31 29.4859V11.5141C31 10.6797 30.325 10 29.5 10ZM16.3469 28H13.2344V17.9781H16.3516V28H16.3469ZM14.7906 16.6094C13.7922 16.6094 12.9859 15.7984 12.9859 14.8047C12.9859 13.8109 13.7922 13 14.7906 13C15.7844 13 16.5953 13.8109 16.5953 14.8047C16.5953 15.8031 15.7891 16.6094 14.7906 16.6094ZM28.0141 28H24.9016V23.125C24.9016 21.9625 24.8781 20.4672 23.2844 20.4672C21.6625 20.4672 21.4141 21.7328 21.4141 23.0406V28H18.3016V17.9781H21.2875V19.3469H21.3297C21.7469 18.5594 22.7641 17.7297 24.2781 17.7297C27.4281 17.7297 28.0141 19.8062 28.0141 22.5062V28Z" fill="white"/>
<circle cx="21" cy="21" r="20.5" stroke="white"/>
</svg>
