<svg width="182" height="182" viewBox="0 0 182 182" fill="none" xmlns="http://www.w3.org/2000/svg">
<rect opacity="0.5" x="0.5" y="-0.5" width="121.436" height="121.436" rx="60.7182" transform="matrix(1 0 0 -1 29.7817 151.218)" stroke="white"/>
<rect opacity="0.5" x="0.5" y="-0.5" width="147.909" height="147.909" rx="73.9545" transform="matrix(1 0 0 -1 16.5454 164.455)" stroke="white"/>
<rect opacity="0.25" x="0.5" y="-0.5" width="181" height="181" rx="90.5" transform="matrix(1 0 0 -1 0 181)" stroke="white"/>
<rect width="99.2727" height="99.2727" rx="49.6364" transform="matrix(1 0 0 -1 41.3635 140.636)" fill="#0C74AF"/>
<path d="M105.891 91V97.6265C105.891 105.841 100.059 109.217 92.9358 105.097L87.2028 101.771L81.4698 98.4455C74.347 94.3257 74.347 87.5999 81.4698 83.4801L87.2028 80.1545L92.9358 76.8288C100.059 72.7835 105.891 76.1339 105.891 84.3736V91Z" stroke="white" stroke-width="1.5" stroke-miterlimit="10" stroke-linecap="round" stroke-linejoin="round"/>
</svg>
