<svg version="1.2" xmlns="http://www.w3.org/2000/svg" viewBox="0 0 182 182" width="182" height="182"><style>.a{opacity:.5;fill:none;stroke:#fff}.b{opacity:.3;fill:none;stroke:#fff}</style><path class="a" d="m30.3 91c0 33.5 27.2 60.7 60.7 60.7 33.5 0 60.7-27.2 60.7-60.7 0-33.5-27.2-60.7-60.7-60.7-33.5 0-60.7 27.2-60.7 60.7z"/><path class="a" d="m17 91c0 40.8 33.2 74 74 74 40.8 0 74-33.2 74-74 0-40.8-33.2-74-74-74-40.8 0-74 33.2-74 74z"/><path class="b" d="m0.5 91c0 50 40.5 90.5 90.5 90.5 50 0 90.5-40.5 90.5-90.5 0-50-40.5-90.5-90.5-90.5-50 0-90.5 40.5-90.5 90.5z"/></svg>