<svg width="45" height="67" viewBox="0 0 45 67" fill="white" xmlns="http://www.w3.org/2000/svg">
<path d="M36.4878 -3.05176e-05C32.7289 -3.05176e-05 29.6828 3.04693 29.6828 6.80307V13.2838C29.6828 14.1425 28.9867 14.8404 28.1225 14.8404H21.6454C17.8865 14.8404 14.8404 17.8893 14.8404 21.6454V28.1261C14.8404 28.9848 14.1443 29.6856 13.2819 29.6856H6.80207C3.04407 29.6856 0 32.7316 0 36.4877V44.5261C0 56.8204 9.96682 66.79 22.2602 66.79C34.5574 66.79 44.5251 56.8204 44.5251 44.5261V29.6856H36.4878C32.7289 29.6856 29.6828 32.7316 29.6828 36.4877V44.5261C29.6828 48.6251 26.3602 51.9458 22.2602 51.9458C18.163 51.9458 14.8404 48.6251 14.8404 44.5261V31.2432C14.8404 30.3817 15.5384 29.6856 16.398 29.6856H22.8797C26.6358 29.6856 29.6828 26.6377 29.6828 22.8797V16.3989C29.6828 15.5393 30.3827 14.8404 31.2423 14.8404H37.7202C41.4763 14.8404 44.5251 11.7963 44.5251 8.03826V0.00185394L44.5214 -3.05176e-05H36.4878Z" fill="white"/>
</svg>
