<svg width="42" height="42" viewBox="0 0 42 42" fill="none" xmlns="http://www.w3.org/2000/svg">
<path d="M30.533 15.8578C30.5482 16.071 30.5482 16.2843 30.5482 16.4975C30.5482 23 25.599 30.4924 16.5533 30.4924C13.7665 30.4924 11.1777 29.6852 9 28.2843C9.39595 28.3299 9.77662 28.3452 10.1878 28.3452C12.4873 28.3452 14.604 27.5685 16.2944 26.2437C14.132 26.198 12.3198 24.7817 11.6954 22.8325C12 22.8781 12.3045 22.9086 12.6244 22.9086C13.066 22.9086 13.5076 22.8477 13.9188 22.7411C11.665 22.2842 9.97458 20.3045 9.97458 17.9137V17.8528C10.6294 18.2183 11.3909 18.4467 12.1979 18.4771C10.873 17.5939 10.005 16.0863 10.005 14.3807C10.005 13.467 10.2487 12.6294 10.6751 11.8985C13.0964 14.8832 16.736 16.8324 20.8172 17.0457C20.7411 16.6802 20.6954 16.2995 20.6954 15.9188C20.6954 13.2081 22.8883 11 25.6141 11C27.0304 11 28.3095 11.5939 29.208 12.5533C30.3197 12.3401 31.3857 11.9289 32.3299 11.3655C31.9643 12.5076 31.1877 13.467 30.1674 14.0761C31.1573 13.9696 32.1167 13.6954 32.9999 13.3147C32.33 14.2893 31.4924 15.1573 30.533 15.8578Z" fill="white"/>
<circle cx="21" cy="21" r="20.5" stroke="white"/>
</svg>
