<svg width="42" height="42" viewBox="0 0 42 42" fill="none" xmlns="http://www.w3.org/2000/svg">
<path d="M32.2801 15.5035C32.0184 14.518 31.2473 13.742 30.2682 13.4786C28.4937 13 21.3778 13 21.3778 13C21.3778 13 14.262 13 12.4873 13.4786C11.5083 13.742 10.7372 14.518 10.4755 15.5035C10 17.2896 10 21.0162 10 21.0162C10 21.0162 10 24.7428 10.4755 26.5289C10.7372 27.5143 11.5083 28.258 12.4873 28.5214C14.262 29 21.3778 29 21.3778 29C21.3778 29 28.4936 29 30.2682 28.5214C31.2473 28.258 32.0184 27.5143 32.2801 26.5289C32.7556 24.7428 32.7556 21.0162 32.7556 21.0162C32.7556 21.0162 32.7556 17.2896 32.2801 15.5035ZM19.0505 24.3996V17.6327L24.998 21.0163L19.0505 24.3996Z" fill="white"/>
<circle cx="21" cy="21" r="20.5" stroke="white"/>
</svg>
